<svg xmlns="http://www.w3.org/2000/svg" width="1200" height="1040" viewBox="0 0 1200 1040" role="img" aria-labelledby="title desc">
<title id="title">Mask 与逆序：把不规则尾部放在最前面处理</title><desc id="desc">例 L=130，s_q=4，ngroups=16；融合 M=64。每行代表同一 query 的16个 heads。</desc>
<style>text{font-family:Arial,"Droid Sans Fallback","Noto Sans CJK SC",sans-serif}.mono{font-family:"DejaVu Sans Mono","Droid Sans Fallback",monospace}</style>
<rect x="0" y="0" width="1200" height="1040" fill="white" stroke="white" stroke-width="1"/>
<text x="40" y="45" font-size="29" fill="#172033" font-weight="700" text-anchor="start">Mask 与逆序：把不规则尾部放在最前面处理</text>
<text x="40" y="79" font-size="18" fill="#5D687A" font-weight="400" text-anchor="start">例 L=130，s_q=4，ngroups=16；融合 M=64。每行代表同一 query 的16个 heads。</text>
<text x="40" y="126" font-size="22" fill="#172033" font-weight="700" text-anchor="start">可见条件：k ≤ L−s_q+q = 126+q。横向只放大 tokens 120..135。</text>
<text x="268" y="181" font-size="17" fill="#172033" font-weight="400" text-anchor="middle">120</text>
<text x="324" y="181" font-size="17" fill="#172033" font-weight="400" text-anchor="middle">121</text>
<text x="380" y="181" font-size="17" fill="#172033" font-weight="400" text-anchor="middle">122</text>
<text x="436" y="181" font-size="17" fill="#172033" font-weight="400" text-anchor="middle">123</text>
<text x="492" y="181" font-size="17" fill="#172033" font-weight="400" text-anchor="middle">124</text>
<text x="548" y="181" font-size="17" fill="#172033" font-weight="400" text-anchor="middle">125</text>
<text x="604" y="181" font-size="17" fill="#172033" font-weight="400" text-anchor="middle">126</text>
<text x="660" y="181" font-size="17" fill="#172033" font-weight="400" text-anchor="middle">127</text>
<text x="716" y="181" font-size="17" fill="#172033" font-weight="400" text-anchor="middle">128</text>
<text x="772" y="181" font-size="17" fill="#172033" font-weight="400" text-anchor="middle">129</text>
<text x="828" y="181" font-size="17" fill="#172033" font-weight="400" text-anchor="middle">130</text>
<text x="884" y="181" font-size="17" fill="#172033" font-weight="400" text-anchor="middle">131</text>
<text x="940" y="181" font-size="17" fill="#172033" font-weight="400" text-anchor="middle">132</text>
<text x="996" y="181" font-size="17" fill="#172033" font-weight="400" text-anchor="middle">133</text>
<text x="1052" y="181" font-size="17" fill="#172033" font-weight="400" text-anchor="middle">134</text>
<text x="1108" y="181" font-size="17" fill="#172033" font-weight="400" text-anchor="middle">135</text>
<text x="210" y="230" font-size="18" fill="#172033" font-weight="400" text-anchor="end">q0 / M0..15</text>
<rect x="240" y="198" width="56" height="62" fill="#DCE8FF" stroke="#CBD3DE" stroke-width="1"/>
<text x="268" y="237" font-size="15" fill="#172033" font-weight="400" text-anchor="middle">✓</text>
<rect x="296" y="198" width="56" height="62" fill="#DCE8FF" stroke="#CBD3DE" stroke-width="1"/>
<text x="324" y="237" font-size="15" fill="#172033" font-weight="400" text-anchor="middle">✓</text>
<rect x="352" y="198" width="56" height="62" fill="#DCE8FF" stroke="#CBD3DE" stroke-width="1"/>
<text x="380" y="237" font-size="15" fill="#172033" font-weight="400" text-anchor="middle">✓</text>
<rect x="408" y="198" width="56" height="62" fill="#DCE8FF" stroke="#CBD3DE" stroke-width="1"/>
<text x="436" y="237" font-size="15" fill="#172033" font-weight="400" text-anchor="middle">✓</text>
<rect x="464" y="198" width="56" height="62" fill="#DCE8FF" stroke="#CBD3DE" stroke-width="1"/>
<text x="492" y="237" font-size="15" fill="#172033" font-weight="400" text-anchor="middle">✓</text>
<rect x="520" y="198" width="56" height="62" fill="#DCE8FF" stroke="#CBD3DE" stroke-width="1"/>
<text x="548" y="237" font-size="15" fill="#172033" font-weight="400" text-anchor="middle">✓</text>
<rect x="576" y="198" width="56" height="62" fill="#DCE8FF" stroke="#CBD3DE" stroke-width="1"/>
<text x="604" y="237" font-size="15" fill="#172033" font-weight="400" text-anchor="middle">✓</text>
<rect x="632" y="198" width="56" height="62" fill="#FCE9C8" stroke="#CBD3DE" stroke-width="1"/>
<text x="660" y="237" font-size="15" fill="#172033" font-weight="400" text-anchor="middle">mask</text>
<rect x="688" y="198" width="56" height="62" fill="#FCE9C8" stroke="#CBD3DE" stroke-width="1"/>
<text x="716" y="237" font-size="15" fill="#172033" font-weight="400" text-anchor="middle">mask</text>
<rect x="744" y="198" width="56" height="62" fill="#FCE9C8" stroke="#CBD3DE" stroke-width="1"/>
<text x="772" y="237" font-size="15" fill="#172033" font-weight="400" text-anchor="middle">mask</text>
<rect x="800" y="198" width="56" height="62" fill="#fae5e5" stroke="#CBD3DE" stroke-width="1"/>
<text x="828" y="237" font-size="15" fill="#172033" font-weight="400" text-anchor="middle">OOB</text>
<rect x="856" y="198" width="56" height="62" fill="#fae5e5" stroke="#CBD3DE" stroke-width="1"/>
<text x="884" y="237" font-size="15" fill="#172033" font-weight="400" text-anchor="middle">OOB</text>
<rect x="912" y="198" width="56" height="62" fill="#fae5e5" stroke="#CBD3DE" stroke-width="1"/>
<text x="940" y="237" font-size="15" fill="#172033" font-weight="400" text-anchor="middle">OOB</text>
<rect x="968" y="198" width="56" height="62" fill="#fae5e5" stroke="#CBD3DE" stroke-width="1"/>
<text x="996" y="237" font-size="15" fill="#172033" font-weight="400" text-anchor="middle">OOB</text>
<rect x="1024" y="198" width="56" height="62" fill="#fae5e5" stroke="#CBD3DE" stroke-width="1"/>
<text x="1052" y="237" font-size="15" fill="#172033" font-weight="400" text-anchor="middle">OOB</text>
<rect x="1080" y="198" width="56" height="62" fill="#fae5e5" stroke="#CBD3DE" stroke-width="1"/>
<text x="1108" y="237" font-size="15" fill="#172033" font-weight="400" text-anchor="middle">OOB</text>
<text x="210" y="292" font-size="18" fill="#172033" font-weight="400" text-anchor="end">q1 / M16..31</text>
<rect x="240" y="260" width="56" height="62" fill="#DCE8FF" stroke="#CBD3DE" stroke-width="1"/>
<text x="268" y="299" font-size="15" fill="#172033" font-weight="400" text-anchor="middle">✓</text>
<rect x="296" y="260" width="56" height="62" fill="#DCE8FF" stroke="#CBD3DE" stroke-width="1"/>
<text x="324" y="299" font-size="15" fill="#172033" font-weight="400" text-anchor="middle">✓</text>
<rect x="352" y="260" width="56" height="62" fill="#DCE8FF" stroke="#CBD3DE" stroke-width="1"/>
<text x="380" y="299" font-size="15" fill="#172033" font-weight="400" text-anchor="middle">✓</text>
<rect x="408" y="260" width="56" height="62" fill="#DCE8FF" stroke="#CBD3DE" stroke-width="1"/>
<text x="436" y="299" font-size="15" fill="#172033" font-weight="400" text-anchor="middle">✓</text>
<rect x="464" y="260" width="56" height="62" fill="#DCE8FF" stroke="#CBD3DE" stroke-width="1"/>
<text x="492" y="299" font-size="15" fill="#172033" font-weight="400" text-anchor="middle">✓</text>
<rect x="520" y="260" width="56" height="62" fill="#DCE8FF" stroke="#CBD3DE" stroke-width="1"/>
<text x="548" y="299" font-size="15" fill="#172033" font-weight="400" text-anchor="middle">✓</text>
<rect x="576" y="260" width="56" height="62" fill="#DCE8FF" stroke="#CBD3DE" stroke-width="1"/>
<text x="604" y="299" font-size="15" fill="#172033" font-weight="400" text-anchor="middle">✓</text>
<rect x="632" y="260" width="56" height="62" fill="#DCE8FF" stroke="#CBD3DE" stroke-width="1"/>
<text x="660" y="299" font-size="15" fill="#172033" font-weight="400" text-anchor="middle">✓</text>
<rect x="688" y="260" width="56" height="62" fill="#FCE9C8" stroke="#CBD3DE" stroke-width="1"/>
<text x="716" y="299" font-size="15" fill="#172033" font-weight="400" text-anchor="middle">mask</text>
<rect x="744" y="260" width="56" height="62" fill="#FCE9C8" stroke="#CBD3DE" stroke-width="1"/>
<text x="772" y="299" font-size="15" fill="#172033" font-weight="400" text-anchor="middle">mask</text>
<rect x="800" y="260" width="56" height="62" fill="#fae5e5" stroke="#CBD3DE" stroke-width="1"/>
<text x="828" y="299" font-size="15" fill="#172033" font-weight="400" text-anchor="middle">OOB</text>
<rect x="856" y="260" width="56" height="62" fill="#fae5e5" stroke="#CBD3DE" stroke-width="1"/>
<text x="884" y="299" font-size="15" fill="#172033" font-weight="400" text-anchor="middle">OOB</text>
<rect x="912" y="260" width="56" height="62" fill="#fae5e5" stroke="#CBD3DE" stroke-width="1"/>
<text x="940" y="299" font-size="15" fill="#172033" font-weight="400" text-anchor="middle">OOB</text>
<rect x="968" y="260" width="56" height="62" fill="#fae5e5" stroke="#CBD3DE" stroke-width="1"/>
<text x="996" y="299" font-size="15" fill="#172033" font-weight="400" text-anchor="middle">OOB</text>
<rect x="1024" y="260" width="56" height="62" fill="#fae5e5" stroke="#CBD3DE" stroke-width="1"/>
<text x="1052" y="299" font-size="15" fill="#172033" font-weight="400" text-anchor="middle">OOB</text>
<rect x="1080" y="260" width="56" height="62" fill="#fae5e5" stroke="#CBD3DE" stroke-width="1"/>
<text x="1108" y="299" font-size="15" fill="#172033" font-weight="400" text-anchor="middle">OOB</text>
<text x="210" y="354" font-size="18" fill="#172033" font-weight="400" text-anchor="end">q2 / M32..47</text>
<rect x="240" y="322" width="56" height="62" fill="#DCE8FF" stroke="#CBD3DE" stroke-width="1"/>
<text x="268" y="361" font-size="15" fill="#172033" font-weight="400" text-anchor="middle">✓</text>
<rect x="296" y="322" width="56" height="62" fill="#DCE8FF" stroke="#CBD3DE" stroke-width="1"/>
<text x="324" y="361" font-size="15" fill="#172033" font-weight="400" text-anchor="middle">✓</text>
<rect x="352" y="322" width="56" height="62" fill="#DCE8FF" stroke="#CBD3DE" stroke-width="1"/>
<text x="380" y="361" font-size="15" fill="#172033" font-weight="400" text-anchor="middle">✓</text>
<rect x="408" y="322" width="56" height="62" fill="#DCE8FF" stroke="#CBD3DE" stroke-width="1"/>
<text x="436" y="361" font-size="15" fill="#172033" font-weight="400" text-anchor="middle">✓</text>
<rect x="464" y="322" width="56" height="62" fill="#DCE8FF" stroke="#CBD3DE" stroke-width="1"/>
<text x="492" y="361" font-size="15" fill="#172033" font-weight="400" text-anchor="middle">✓</text>
<rect x="520" y="322" width="56" height="62" fill="#DCE8FF" stroke="#CBD3DE" stroke-width="1"/>
<text x="548" y="361" font-size="15" fill="#172033" font-weight="400" text-anchor="middle">✓</text>
<rect x="576" y="322" width="56" height="62" fill="#DCE8FF" stroke="#CBD3DE" stroke-width="1"/>
<text x="604" y="361" font-size="15" fill="#172033" font-weight="400" text-anchor="middle">✓</text>
<rect x="632" y="322" width="56" height="62" fill="#DCE8FF" stroke="#CBD3DE" stroke-width="1"/>
<text x="660" y="361" font-size="15" fill="#172033" font-weight="400" text-anchor="middle">✓</text>
<rect x="688" y="322" width="56" height="62" fill="#DCE8FF" stroke="#CBD3DE" stroke-width="1"/>
<text x="716" y="361" font-size="15" fill="#172033" font-weight="400" text-anchor="middle">✓</text>
<rect x="744" y="322" width="56" height="62" fill="#FCE9C8" stroke="#CBD3DE" stroke-width="1"/>
<text x="772" y="361" font-size="15" fill="#172033" font-weight="400" text-anchor="middle">mask</text>
<rect x="800" y="322" width="56" height="62" fill="#fae5e5" stroke="#CBD3DE" stroke-width="1"/>
<text x="828" y="361" font-size="15" fill="#172033" font-weight="400" text-anchor="middle">OOB</text>
<rect x="856" y="322" width="56" height="62" fill="#fae5e5" stroke="#CBD3DE" stroke-width="1"/>
<text x="884" y="361" font-size="15" fill="#172033" font-weight="400" text-anchor="middle">OOB</text>
<rect x="912" y="322" width="56" height="62" fill="#fae5e5" stroke="#CBD3DE" stroke-width="1"/>
<text x="940" y="361" font-size="15" fill="#172033" font-weight="400" text-anchor="middle">OOB</text>
<rect x="968" y="322" width="56" height="62" fill="#fae5e5" stroke="#CBD3DE" stroke-width="1"/>
<text x="996" y="361" font-size="15" fill="#172033" font-weight="400" text-anchor="middle">OOB</text>
<rect x="1024" y="322" width="56" height="62" fill="#fae5e5" stroke="#CBD3DE" stroke-width="1"/>
<text x="1052" y="361" font-size="15" fill="#172033" font-weight="400" text-anchor="middle">OOB</text>
<rect x="1080" y="322" width="56" height="62" fill="#fae5e5" stroke="#CBD3DE" stroke-width="1"/>
<text x="1108" y="361" font-size="15" fill="#172033" font-weight="400" text-anchor="middle">OOB</text>
<text x="210" y="416" font-size="18" fill="#172033" font-weight="400" text-anchor="end">q3 / M48..63</text>
<rect x="240" y="384" width="56" height="62" fill="#DCE8FF" stroke="#CBD3DE" stroke-width="1"/>
<text x="268" y="423" font-size="15" fill="#172033" font-weight="400" text-anchor="middle">✓</text>
<rect x="296" y="384" width="56" height="62" fill="#DCE8FF" stroke="#CBD3DE" stroke-width="1"/>
<text x="324" y="423" font-size="15" fill="#172033" font-weight="400" text-anchor="middle">✓</text>
<rect x="352" y="384" width="56" height="62" fill="#DCE8FF" stroke="#CBD3DE" stroke-width="1"/>
<text x="380" y="423" font-size="15" fill="#172033" font-weight="400" text-anchor="middle">✓</text>
<rect x="408" y="384" width="56" height="62" fill="#DCE8FF" stroke="#CBD3DE" stroke-width="1"/>
<text x="436" y="423" font-size="15" fill="#172033" font-weight="400" text-anchor="middle">✓</text>
<rect x="464" y="384" width="56" height="62" fill="#DCE8FF" stroke="#CBD3DE" stroke-width="1"/>
<text x="492" y="423" font-size="15" fill="#172033" font-weight="400" text-anchor="middle">✓</text>
<rect x="520" y="384" width="56" height="62" fill="#DCE8FF" stroke="#CBD3DE" stroke-width="1"/>
<text x="548" y="423" font-size="15" fill="#172033" font-weight="400" text-anchor="middle">✓</text>
<rect x="576" y="384" width="56" height="62" fill="#DCE8FF" stroke="#CBD3DE" stroke-width="1"/>
<text x="604" y="423" font-size="15" fill="#172033" font-weight="400" text-anchor="middle">✓</text>
<rect x="632" y="384" width="56" height="62" fill="#DCE8FF" stroke="#CBD3DE" stroke-width="1"/>
<text x="660" y="423" font-size="15" fill="#172033" font-weight="400" text-anchor="middle">✓</text>
<rect x="688" y="384" width="56" height="62" fill="#DCE8FF" stroke="#CBD3DE" stroke-width="1"/>
<text x="716" y="423" font-size="15" fill="#172033" font-weight="400" text-anchor="middle">✓</text>
<rect x="744" y="384" width="56" height="62" fill="#DCE8FF" stroke="#CBD3DE" stroke-width="1"/>
<text x="772" y="423" font-size="15" fill="#172033" font-weight="400" text-anchor="middle">✓</text>
<rect x="800" y="384" width="56" height="62" fill="#fae5e5" stroke="#CBD3DE" stroke-width="1"/>
<text x="828" y="423" font-size="15" fill="#172033" font-weight="400" text-anchor="middle">OOB</text>
<rect x="856" y="384" width="56" height="62" fill="#fae5e5" stroke="#CBD3DE" stroke-width="1"/>
<text x="884" y="423" font-size="15" fill="#172033" font-weight="400" text-anchor="middle">OOB</text>
<rect x="912" y="384" width="56" height="62" fill="#fae5e5" stroke="#CBD3DE" stroke-width="1"/>
<text x="940" y="423" font-size="15" fill="#172033" font-weight="400" text-anchor="middle">OOB</text>
<rect x="968" y="384" width="56" height="62" fill="#fae5e5" stroke="#CBD3DE" stroke-width="1"/>
<text x="996" y="423" font-size="15" fill="#172033" font-weight="400" text-anchor="middle">OOB</text>
<rect x="1024" y="384" width="56" height="62" fill="#fae5e5" stroke="#CBD3DE" stroke-width="1"/>
<text x="1052" y="423" font-size="15" fill="#172033" font-weight="400" text-anchor="middle">OOB</text>
<rect x="1080" y="384" width="56" height="62" fill="#fae5e5" stroke="#CBD3DE" stroke-width="1"/>
<text x="1108" y="423" font-size="15" fill="#172033" font-weight="400" text-anchor="middle">OOB</text>
<text x="40" y="488" font-size="20" fill="#172033" font-weight="400" text-anchor="start">蓝：有效；黄：真实cache token，但属于未来；红：超出当前 L 的未初始化位置。</text>
<path d="M240,520 L679,520" stroke="#174EA6" stroke-width="2" fill="none"/>
<polygon points="679,520 671,515 671,525" fill="#174EA6"/>
<path d="M692,520 L1129,520" stroke="#174EA6" stroke-width="2" fill="none"/>
<polygon points="1129,520 1121,515 1121,525" fill="#174EA6"/>
<text x="461" y="551" font-size="19" fill="#172033" font-weight="400" text-anchor="middle">block1 的尾部（k120..127）</text>
<text x="908" y="551" font-size="19" fill="#172033" font-weight="400" text-anchor="middle">block2（k128..191）的前8列</text>
<rect x="40" y="590" width="350" height="125" fill="#fae5e5" stroke="#CBD3DE" stroke-width="1"/>
<text x="55" y="619" font-size="21" fill="#172033" font-weight="700" text-anchor="start">① block2 → buffer0</text>
<text x="55" y="649" font-size="18" fill="#172033" font-weight="400" text-anchor="start">先算；尾块copy按 L 清零</text>
<text x="55" y="678" font-size="18" fill="#172033" font-weight="400" text-anchor="start">S 还需逐行 causal mask</text>
<rect x="425" y="590" width="350" height="125" fill="#FCE9C8" stroke="#CBD3DE" stroke-width="1"/>
<text x="440" y="619" font-size="21" fill="#172033" font-weight="700" text-anchor="start">② block1 → buffer1</text>
<text x="440" y="649" font-size="18" fill="#172033" font-weight="400" text-anchor="start">全量copy；Q0仍需mask</text>
<text x="440" y="678" font-size="18" fill="#172033" font-weight="400" text-anchor="start">其他query可见整块</text>
<rect x="810" y="590" width="350" height="125" fill="#DCE8FF" stroke="#CBD3DE" stroke-width="1"/>
<text x="825" y="619" font-size="21" fill="#172033" font-weight="700" text-anchor="start">③ block0 → buffer0</text>
<text x="825" y="649" font-size="18" fill="#172033" font-weight="400" text-anchor="start">全量copy</text>
<text x="825" y="678" font-size="18" fill="#172033" font-weight="400" text-anchor="start">无需逐元素mask</text>
<path d="M390,650 L422,650" stroke="#174EA6" stroke-width="2" fill="none"/>
<polygon points="422,650 414,645 414,655" fill="#174EA6"/>
<path d="M775,650 L807,650" stroke="#174EA6" stroke-width="2" fill="none"/>
<polygon points="807,650 799,645 799,655" fill="#174EA6"/>
<text x="40" y="765" font-size="22" fill="#174EA6" font-weight="700" text-anchor="start">首版 n_masking_steps：非causal=1；causal=ceil(64/64)+1=2。</text>
<text x="40" y="807" font-size="21" fill="#172033" font-weight="400" text-anchor="start">先处理右边，再向左走；后面的完整块可用 Is_even_MN=true copy 快路径。</text>
<rect x="40" y="840" width="1120" height="149" fill="#F7F9FC" stroke="#CBD3DE" stroke-width="1"/>
<text x="55" y="869" font-size="21" fill="#172033" font-weight="700" text-anchor="start">TMA 的 tensor 边界 ≠ 每个请求的有效长度</text>
<text x="55" y="899" font-size="18" fill="#172033" font-weight="400" text-anchor="start">block2 实际物理page含64个槽，TMA看来全部在范围内；只有前2槽属于本请求。</text>
<text x="55" y="928" font-size="18" fill="#172033" font-weight="400" text-anchor="start">首版：无效行不copy，cute::clear(shared)；4月版：TMA完成后 fill_oob_V(shared)。</text>
<text x="55" y="957" font-size="18" fill="#172033" font-weight="400" text-anchor="start">S 的 mask 解决概率；V 的清零解决 0×NaN=NaN。两个步骤缺一不可。</text>
</svg>
